# xmcd
#
# Track frame offsets:
# 150
# 11314
# 26530
# 38058
# 47349
# 64165
# 74246
# 86049
# 99125
# 107286
# 117596
# 131667
# 143830
# 154475
#
# Disc length: 2229 seconds
#
#
# Revision: 0
# Processed by: cddbd v1.5.1PL2 Copyright (c) Steve Scherf et al.
# Submitted via: FreeRIP 2.941 
#
DISCID=b808b30e
DTITLE=Various Artist - Walk The Line
DYEAR=2005
DGENRE=Country
TTITLE0=Joaquin Phoenix - Get Rhythm
TTITLE1=Joaquin Phoenix - Walk The Line
TTITLE2=Reese Witherspoon - Wildwood Flower
TTITLE3=Waylon Malloy Payne - Lewis Boogie
TTITLE4=Joaquin Phoenix - Ring Of Fire
TTITLE5=Johnathon Rice - You're My Baby
TTITLE6=Joaquin Phoenix - Cry Cry Cry
TTITLE7=Joaquin Phoenix - Polsom Prison Blues
TTITLE8=Tyler Hilton - That's All Right (Mama)
TTITLE9=Reese Witherspoon - Juke Box Blues
TTITLE10=Joaquin Phoenix and Reese Witherspoon - It Ain't Me Babe
TTITLE11=Joaquin Phoenix - Home Of The Blues
TTITLE12=Tyler Hilton - Milk Cow Blues
TTITLE13=Joaquin Phoenix and Reese Witherspoon - Jackson
EXTD=
EXTT0=
EXTT1=
EXTT2=
EXTT3=
EXTT4=
EXTT5=
EXTT6=
EXTT7=
EXTT8=
EXTT9=
EXTT10=
EXTT11=
EXTT12=
EXTT13=
PLAYORDER=
